<svg width="20" height="21" viewBox="0 0 20 21" fill="none" xmlns="http://www.w3.org/2000/svg">
<path d="M15.8333 3.83337H4.16666C3.50362 3.83337 2.86773 4.09677 2.39889 4.56561C1.93005 5.03445 1.66666 5.67033 1.66666 6.33337V14.6667C1.66666 15.3297 1.93005 15.9656 2.39889 16.4345C2.86773 16.9033 3.50362 17.1667 4.16666 17.1667H15.8333C16.4964 17.1667 17.1322 16.9033 17.6011 16.4345C18.0699 15.9656 18.3333 15.3297 18.3333 14.6667V6.33337C18.3333 5.67033 18.0699 5.03445 17.6011 4.56561C17.1322 4.09677 16.4964 3.83337 15.8333 3.83337ZM15.8333 5.50004L10.4167 9.22504C10.29 9.29818 10.1463 9.33669 9.99999 9.33669C9.85371 9.33669 9.71001 9.29818 9.58332 9.22504L4.16666 5.50004H15.8333Z" fill="#DFDFDF"/>
</svg>
