<svg width="76" height="13" viewBox="0 0 76 13" fill="none" xmlns="http://www.w3.org/2000/svg">
<path d="M3.22656 6.70898V11.2969L5.18652 11.5342V12H0.132812V11.5342L1.53027 11.2969V0.908203L0.0185547 0.679688V0.213867H8.86035V3.03516H8.28027L7.99902 1.12793C7.34277 1.0459 6.39355 1.00488 5.15137 1.00488H3.22656V5.91797H6.69824L6.9707 4.51172H7.50684V8.13281H6.9707L6.69824 6.70898H3.22656ZM16.0755 3.51855V5.75098H15.6975L15.1878 4.78418C14.8948 4.78418 14.5462 4.8252 14.1419 4.90723C13.7434 4.9834 13.3977 5.08594 13.1048 5.21484V11.3848L14.5198 11.6045V12H10.5999V11.6045L11.6458 11.3848V4.35352L10.5999 4.13379V3.73828H13.0081L13.0872 4.7666C13.4388 4.47363 13.9134 4.19238 14.511 3.92285C15.1145 3.65332 15.5921 3.51855 15.9436 3.51855H16.0755ZM19.2388 7.84277V8.00098C19.2388 8.80957 19.3267 9.43945 19.5025 9.89062C19.6841 10.3359 19.9595 10.6758 20.3287 10.9102C20.7037 11.1445 21.1929 11.2617 21.7964 11.2617C22.1129 11.2617 22.4879 11.2354 22.9214 11.1826C23.355 11.1299 23.7125 11.0713 23.9937 11.0068V11.499C23.7125 11.6807 23.3287 11.8389 22.8423 11.9736C22.3619 12.1084 21.8697 12.1758 21.3658 12.1758C20.0826 12.1758 19.1421 11.8301 18.5445 11.1387C17.9527 10.4473 17.6568 9.33691 17.6568 7.80762C17.6568 6.36621 17.9586 5.29102 18.5621 4.58203C19.1656 3.87305 20.0269 3.51855 21.1461 3.51855C23.2613 3.51855 24.3189 4.71973 24.3189 7.12207V7.84277H19.2388ZM21.1461 4.22168C20.5367 4.22168 20.0679 4.46777 19.7398 4.95996C19.4175 5.45215 19.2564 6.17871 19.2564 7.13965H22.7896C22.7896 6.09082 22.6548 5.34375 22.3853 4.89844C22.1158 4.44727 21.7027 4.22168 21.1461 4.22168ZM32.0262 9.67969C32.0262 10.5 31.7655 11.1211 31.244 11.543C30.7284 11.9648 29.9637 12.1758 28.95 12.1758C28.5399 12.1758 28.0858 12.1318 27.5877 12.0439C27.0955 11.9619 26.7088 11.8682 26.4276 11.7627V9.73242H26.8231L27.2537 10.8838C27.6932 11.2822 28.2645 11.4814 28.9676 11.4814C30.1043 11.4814 30.6727 10.9951 30.6727 10.0225C30.6727 9.30762 30.2245 8.79785 29.328 8.49316L28.5457 8.23828C27.9539 8.04492 27.5233 7.84863 27.2537 7.64941C26.9842 7.4502 26.7762 7.20703 26.6297 6.91992C26.4832 6.62695 26.41 6.27539 26.41 5.86523C26.41 5.13867 26.6561 4.56738 27.1483 4.15137C27.6463 3.72949 28.3172 3.51855 29.161 3.51855C29.7645 3.51855 30.5204 3.60938 31.4286 3.79102V5.59277H31.0155L30.6463 4.63477C30.3358 4.35938 29.8465 4.22168 29.1786 4.22168C28.7039 4.22168 28.3407 4.33887 28.0887 4.57324C27.8426 4.80762 27.7196 5.12402 27.7196 5.52246C27.7196 5.85645 27.8309 6.1377 28.0536 6.36621C28.2821 6.59473 28.6248 6.78516 29.0819 6.9375C29.9432 7.23047 30.5057 7.44434 30.7694 7.5791C31.033 7.71387 31.2557 7.88086 31.4373 8.08008C31.6248 8.27344 31.7684 8.49609 31.868 8.74805C31.9735 9 32.0262 9.31055 32.0262 9.67969ZM36.2706 4.40625C36.7101 4.1543 37.1759 3.94336 37.6681 3.77344C38.1603 3.60352 38.5939 3.51855 38.9689 3.51855C39.3732 3.51855 39.7452 3.59473 40.0851 3.74707C40.4308 3.89941 40.6886 4.14258 40.8585 4.47656C41.3097 4.22461 41.837 4.00195 42.4405 3.80859C43.0499 3.61523 43.5538 3.51855 43.9523 3.51855C45.3585 3.51855 46.0616 4.33008 46.0616 5.95312V11.3848L47.1251 11.6045V12H43.3722V11.6045L44.6027 11.3848V6.11133C44.6027 5.10352 44.1339 4.59961 43.1964 4.59961C43.0441 4.59961 42.8654 4.61133 42.6603 4.63477C42.4611 4.6582 42.2589 4.68457 42.0538 4.71387C41.8546 4.74316 41.6613 4.77832 41.4738 4.81934C41.2921 4.85449 41.1398 4.88379 41.0167 4.90723C41.1163 5.22363 41.1661 5.57227 41.1661 5.95312V11.3848L42.4054 11.6045V12H38.4855V11.6045L39.7071 11.3848V6.11133C39.7071 5.625 39.5812 5.25293 39.3292 4.99512C39.0831 4.73145 38.7111 4.59961 38.213 4.59961C37.6974 4.59961 37.0558 4.68457 36.2882 4.85449V11.3848L37.5275 11.6045V12H33.7833V11.6045L34.8292 11.3848V4.35352L33.7833 4.13379V3.73828H36.2003L36.2706 4.40625ZM56.4496 7.8252C56.4496 10.7256 55.1605 12.1758 52.5824 12.1758C51.3402 12.1758 50.4027 11.8037 49.7699 11.0596C49.1371 10.3154 48.8207 9.2373 48.8207 7.8252C48.8207 6.43066 49.1371 5.36426 49.7699 4.62598C50.4027 3.8877 51.3637 3.51855 52.6527 3.51855C53.9066 3.51855 54.8529 3.88184 55.4916 4.6084C56.1303 5.3291 56.4496 6.40137 56.4496 7.8252ZM54.8676 7.8252C54.8676 6.55957 54.683 5.64258 54.3139 5.07422C53.9447 4.50586 53.3676 4.22168 52.5824 4.22168C51.8148 4.22168 51.2582 4.49414 50.9125 5.03906C50.5727 5.58398 50.4027 6.5127 50.4027 7.8252C50.4027 9.15527 50.5756 10.0986 50.9213 10.6553C51.2729 11.2061 51.8266 11.4814 52.5824 11.4814C53.3559 11.4814 53.9301 11.1943 54.3051 10.6201C54.6801 10.0459 54.8676 9.11426 54.8676 7.8252ZM62.7507 12.1758H62.1003L58.6989 4.35352L57.8552 4.13379V3.73828H61.7048V4.13379L60.3952 4.37109L62.8034 10.0752L65.1061 4.35352L63.7966 4.13379V3.73828H66.8552V4.13379L66.0641 4.31836L62.7507 12.1758ZM71.6621 3.55371C72.5644 3.55371 73.2265 3.73828 73.6484 4.10742C74.0761 4.47656 74.29 5.04199 74.29 5.80371V11.3848L75.3183 11.6045V12H73.0507L72.8838 11.1738C72.2158 11.8418 71.3632 12.1758 70.3261 12.1758C68.914 12.1758 68.208 11.3555 68.208 9.71484C68.208 9.16406 68.3134 8.70996 68.5244 8.35254C68.7412 7.98926 69.0839 7.71387 69.5527 7.52637C70.0214 7.33301 70.7011 7.22754 71.5918 7.20996L72.831 7.1748V5.88281C72.831 5.31445 72.7255 4.89551 72.5146 4.62598C72.3095 4.35645 71.9902 4.22168 71.5566 4.22168C70.9707 4.22168 70.4345 4.35938 69.9482 4.63477L69.6494 5.66309H69.1572V3.86133C70.1064 3.65625 70.9414 3.55371 71.6621 3.55371ZM72.831 7.79004L71.6796 7.8252C70.8945 7.85449 70.3613 8.00684 70.08 8.28223C69.8046 8.55762 69.667 9.01758 69.667 9.66211C69.667 10.6934 70.0859 11.209 70.9238 11.209C71.3222 11.209 71.665 11.165 71.9521 11.0771C72.2451 10.9834 72.538 10.8662 72.831 10.7256V7.79004Z" fill="white"/>
</svg>
