<svg width="20" height="21" viewBox="0 0 20 21" fill="none" xmlns="http://www.w3.org/2000/svg">
<path d="M17.2969 4.99609L15.2168 2.91797C15.0701 2.77059 14.8957 2.65366 14.7036 2.57389C14.5115 2.49412 14.3056 2.45308 14.0977 2.45313C13.6738 2.45313 13.2754 2.61914 12.9766 2.91797L10.7383 5.15625C10.5909 5.30298 10.474 5.47738 10.3942 5.66944C10.3144 5.8615 10.2734 6.06743 10.2734 6.27539C10.2734 6.69922 10.4395 7.09766 10.7383 7.39648L12.375 9.0332C11.9919 9.87766 11.4592 10.6459 10.8027 11.3008C10.1479 11.9589 9.37974 12.4935 8.53516 12.8789L6.89844 11.2422C6.75171 11.0948 6.5773 10.9779 6.38525 10.8981C6.19319 10.8183 5.98726 10.7773 5.7793 10.7773C5.35547 10.7773 4.95703 10.9434 4.6582 11.2422L2.41797 13.4785C2.27041 13.6255 2.15338 13.8002 2.0736 13.9926C1.99383 14.185 1.95288 14.3913 1.95313 14.5996C1.95313 15.0234 2.11914 15.4219 2.41797 15.7207L4.49414 17.7969C4.9707 18.2754 5.62891 18.5469 6.30469 18.5469C6.44727 18.5469 6.58399 18.5352 6.71875 18.5117C9.35156 18.0781 11.9629 16.6777 14.0703 14.5723C16.1758 12.4688 17.5742 9.85938 18.0137 7.21875C18.1465 6.41211 17.8789 5.58203 17.2969 4.99609Z" fill="#DFDFDF"/>
</svg>
