<svg width="30" height="30" viewBox="0 0 30 30" fill="none" xmlns="http://www.w3.org/2000/svg">
<path d="M26.4737 9.0075C26.6487 8.42625 26.4737 8 25.6462 8H22.905C22.2075 8 21.8887 8.36875 21.7137 8.77375C21.7137 8.77375 20.32 12.1725 18.345 14.3762C17.7075 15.0175 17.4162 15.22 17.0687 15.22C16.895 15.22 16.6425 15.0175 16.6425 14.4363V9.0075C16.6425 8.31 16.4412 8 15.86 8H11.5525C11.1175 8 10.855 8.3225 10.855 8.63C10.855 9.29 11.8425 9.4425 11.9437 11.3025V15.3375C11.9437 16.2212 11.785 16.3825 11.435 16.3825C10.5062 16.3825 8.24625 12.9713 6.905 9.06625C6.64375 8.3075 6.38 8.00125 5.68 8.00125H2.94C2.15625 8.00125 2 8.37 2 8.775C2 9.5025 2.92875 13.1025 6.32625 17.8637C8.59125 21.115 11.78 22.8775 14.685 22.8775C16.4262 22.8775 16.6412 22.4862 16.6412 21.8112V19.3538C16.6412 18.5712 16.8075 18.4138 17.3587 18.4138C17.7637 18.4138 18.4612 18.6188 20.0875 20.185C21.945 22.0425 22.2525 22.8763 23.2962 22.8763H26.0362C26.8187 22.8763 27.21 22.485 26.985 21.7125C26.7387 20.9437 25.8512 19.825 24.6737 18.5013C24.0337 17.7463 23.0775 16.9338 22.7862 16.5275C22.38 16.0038 22.4975 15.7725 22.7862 15.3075C22.7875 15.3088 26.1262 10.6063 26.4737 9.0075Z" fill="white"/>
</svg>
