<svg width="30" height="30" viewBox="0 0 30 30" fill="none" xmlns="http://www.w3.org/2000/svg">
<path d="M25.2663 8.54982C21.6663 2.99982 14.3163 1.34982 8.61632 4.79982C3.06632 8.24982 1.26632 15.7498 4.86632 21.2998L5.16632 21.7498L3.96632 26.2498L8.46632 25.0498L8.91632 25.3498C10.8663 26.3998 12.9663 26.9998 15.0663 26.9998C17.3163 26.9998 19.5663 26.3998 21.5163 25.1998C27.0663 21.5998 28.7163 14.2498 25.2663 8.54982ZM22.1163 20.0998C21.5163 20.9998 20.7663 21.5998 19.7163 21.7498C19.1163 21.7498 18.3663 22.0498 15.3663 20.8498C12.8163 19.6498 10.7163 17.6998 9.21632 15.4498C8.31632 14.3998 7.86632 13.0498 7.71632 11.6998C7.71632 10.4998 8.16632 9.44982 8.91632 8.69982C9.21632 8.39982 9.51632 8.24982 9.81632 8.24982H10.5663C10.8663 8.24982 11.1663 8.24982 11.3163 8.84982C11.6163 9.59982 12.3663 11.3998 12.3663 11.5498C12.5163 11.6998 12.5163 11.9998 12.3663 12.1498C12.5163 12.4498 12.3663 12.7498 12.2163 12.8998C12.0663 13.0498 11.9163 13.3498 11.7663 13.4998C11.4663 13.6498 11.3163 13.9498 11.4663 14.2498C12.0663 15.1498 12.8163 16.0498 13.5663 16.7998C14.4663 17.5498 15.3663 18.1498 16.4163 18.5998C16.7163 18.7498 17.0163 18.7498 17.1663 18.4498C17.3163 18.1498 18.0663 17.3998 18.3663 17.0998C18.6663 16.7998 18.8163 16.7998 19.1163 16.9498L21.5163 18.1498C21.8163 18.2998 22.1163 18.4498 22.2663 18.5998C22.4163 19.0498 22.4163 19.6498 22.1163 20.0998Z" fill="white"/>
</svg>
